<?xml version="1.0" encoding="UTF-8" standalone="no"?>
<!DOCTYPE svg PUBLIC "-//W3C//DTD SVG 1.1//EN"
 "http://www.w3.org/Graphics/SVG/1.1/DTD/svg11.dtd">
<!-- Generated by graphviz version 2.43.0 (0)
 -->
<!-- Title: NetworkSystem Pages: 1 -->
<svg width="276pt" height="140pt"
 viewBox="0.00 0.00 275.50 140.00" xmlns="http://www.w3.org/2000/svg" xmlns:xlink="http://www.w3.org/1999/xlink">
<g id="graph0" class="graph" transform="scale(1 1) rotate(0) translate(4 136)">
<title>NetworkSystem</title>
<polygon fill="white" stroke="transparent" points="-4,4 -4,-136 271.5,-136 271.5,4 -4,4"/>
<!-- Node1 -->
<g id="node1" class="node">
<title>Node1</title>
<g id="a_node1"><a xlink:title=" ">
<polygon fill="#bfbfbf" stroke="black" points="85,-56.5 85,-75.5 180,-75.5 180,-56.5 85,-56.5"/>
<text text-anchor="middle" x="132.5" y="-63.5" font-family="Helvetica,sans-Serif" font-size="10.00">NetworkSystem</text>
</a>
</g>
</g>
<!-- Node3 -->
<g id="node3" class="node">
<title>Node3</title>
<g id="a_node3"><a xlink:href="classClientNetworkSystem.html" target="_top" xlink:title="Manages the client system.">
<polygon fill="white" stroke="black" points="0,-0.5 0,-19.5 123,-19.5 123,-0.5 0,-0.5"/>
<text text-anchor="middle" x="61.5" y="-7.5" font-family="Helvetica,sans-Serif" font-size="10.00">ClientNetworkSystem</text>
</a>
</g>
</g>
<!-- Node1&#45;&gt;Node3 -->
<g id="edge2" class="edge">
<title>Node1&#45;&gt;Node3</title>
<path fill="none" stroke="midnightblue" d="M112.91,-50.1C100.13,-40.38 83.89,-28.03 73.11,-19.83"/>
<polygon fill="midnightblue" stroke="midnightblue" points="111.01,-53.06 121.09,-56.32 115.25,-47.48 111.01,-53.06"/>
</g>
<!-- Node4 -->
<g id="node4" class="node">
<title>Node4</title>
<g id="a_node4"><a xlink:href="classServerNetworkSystem.html" target="_top" xlink:title="Manages the server system.">
<polygon fill="white" stroke="black" points="141.5,-0.5 141.5,-19.5 267.5,-19.5 267.5,-0.5 141.5,-0.5"/>
<text text-anchor="middle" x="204.5" y="-7.5" font-family="Helvetica,sans-Serif" font-size="10.00">ServerNetworkSystem</text>
</a>
</g>
</g>
<!-- Node1&#45;&gt;Node4 -->
<g id="edge3" class="edge">
<title>Node1&#45;&gt;Node4</title>
<path fill="none" stroke="midnightblue" d="M152.37,-50.1C165.32,-40.38 181.8,-28.03 192.72,-19.83"/>
<polygon fill="midnightblue" stroke="midnightblue" points="149.97,-47.52 144.07,-56.32 154.17,-53.12 149.97,-47.52"/>
</g>
<!-- Node2 -->
<g id="node2" class="node">
<title>Node2</title>
<g id="a_node2"><a xlink:href="classSystem.html" target="_top" xlink:title="Base class for all systems.">
<polygon fill="white" stroke="black" points="106,-112.5 106,-131.5 159,-131.5 159,-112.5 106,-112.5"/>
<text text-anchor="middle" x="132.5" y="-119.5" font-family="Helvetica,sans-Serif" font-size="10.00">System</text>
</a>
</g>
</g>
<!-- Node2&#45;&gt;Node1 -->
<g id="edge1" class="edge">
<title>Node2&#45;&gt;Node1</title>
<path fill="none" stroke="midnightblue" d="M132.5,-101.8C132.5,-92.91 132.5,-82.78 132.5,-75.75"/>
<polygon fill="midnightblue" stroke="midnightblue" points="129,-102.08 132.5,-112.08 136,-102.08 129,-102.08"/>
</g>
</g>
</svg>
