<?xml version="1.0" encoding="UTF-8" standalone="no"?>
<!DOCTYPE svg PUBLIC "-//W3C//DTD SVG 1.1//EN"
 "http://www.w3.org/Graphics/SVG/1.1/DTD/svg11.dtd">
<!-- Generated by graphviz version 2.43.0 (0)
 -->
<!-- Title: System Pages: 1 -->
<svg width="194pt" height="84pt"
 viewBox="0.00 0.00 193.50 84.00" xmlns="http://www.w3.org/2000/svg" xmlns:xlink="http://www.w3.org/1999/xlink">
<g id="graph0" class="graph" transform="scale(1 1) rotate(0) translate(4 80)">
<title>System</title>
<polygon fill="white" stroke="transparent" points="-4,4 -4,-80 189.5,-80 189.5,4 -4,4"/>
<!-- Node1 -->
<g id="node1" class="node">
<title>Node1</title>
<g id="a_node1"><a xlink:title="Base class for all systems.">
<polygon fill="#bfbfbf" stroke="black" points="65.5,-56.5 65.5,-75.5 118.5,-75.5 118.5,-56.5 65.5,-56.5"/>
<text text-anchor="middle" x="92" y="-63.5" font-family="Helvetica,sans-Serif" font-size="10.00">System</text>
</a>
</g>
</g>
<!-- Node2 -->
<g id="node2" class="node">
<title>Node2</title>
<g id="a_node2"><a xlink:href="classClientSystem.html" target="_top" xlink:title="Manages the client system.">
<polygon fill="white" stroke="black" points="0,-0.5 0,-19.5 82,-19.5 82,-0.5 0,-0.5"/>
<text text-anchor="middle" x="41" y="-7.5" font-family="Helvetica,sans-Serif" font-size="10.00">ClientSystem</text>
</a>
</g>
</g>
<!-- Node1&#45;&gt;Node2 -->
<g id="edge1" class="edge">
<title>Node1&#45;&gt;Node2</title>
<path fill="none" stroke="midnightblue" d="M76.62,-48.72C67.63,-39.2 56.64,-27.56 49.26,-19.75"/>
<polygon fill="midnightblue" stroke="midnightblue" points="74.17,-51.22 83.58,-56.08 79.26,-46.41 74.17,-51.22"/>
</g>
<!-- Node3 -->
<g id="node3" class="node">
<title>Node3</title>
<g id="a_node3"><a xlink:href="classServerSystem.html" target="_top" xlink:title="Manages the server system.">
<polygon fill="white" stroke="black" points="100.5,-0.5 100.5,-19.5 185.5,-19.5 185.5,-0.5 100.5,-0.5"/>
<text text-anchor="middle" x="143" y="-7.5" font-family="Helvetica,sans-Serif" font-size="10.00">ServerSystem</text>
</a>
</g>
</g>
<!-- Node1&#45;&gt;Node3 -->
<g id="edge2" class="edge">
<title>Node1&#45;&gt;Node3</title>
<path fill="none" stroke="midnightblue" d="M107.38,-48.72C116.37,-39.2 127.36,-27.56 134.74,-19.75"/>
<polygon fill="midnightblue" stroke="midnightblue" points="104.74,-46.41 100.42,-56.08 109.83,-51.22 104.74,-46.41"/>
</g>
</g>
</svg>
