<?xml version="1.0" encoding="UTF-8" standalone="no"?>
<!DOCTYPE svg PUBLIC "-//W3C//DTD SVG 1.1//EN"
 "http://www.w3.org/Graphics/SVG/1.1/DTD/svg11.dtd">
<!-- Generated by graphviz version 2.43.0 (0)
 -->
<!-- Title: Graphical Class Hierarchy Pages: 1 -->
<svg width="354pt" height="66pt"
 viewBox="0.00 0.00 354.00 66.00" xmlns="http://www.w3.org/2000/svg" xmlns:xlink="http://www.w3.org/1999/xlink">
<g id="graph0" class="graph" transform="scale(1 1) rotate(0) translate(4 62)">
<title>Graphical Class Hierarchy</title>
<polygon fill="white" stroke="transparent" points="-4,4 -4,-62 350,-62 350,4 -4,4"/>
<!-- Node18 -->
<g id="node1" class="node">
<title>Node18</title>
<g id="a_node1"><a xlink:title=" ">
<polygon fill="white" stroke="#bfbfbf" points="0,-19.5 0,-38.5 53,-38.5 53,-19.5 0,-19.5"/>
<text text-anchor="middle" x="26.5" y="-26.5" font-family="Helvetica,sans-Serif" font-size="10.00">System</text>
</a>
</g>
</g>
<!-- Node0 -->
<g id="node2" class="node">
<title>Node0</title>
<g id="a_node2"><a xlink:href="classNetworkSystem.html" target="_top" xlink:title=" ">
<polygon fill="white" stroke="black" points="89,-19.5 89,-38.5 184,-38.5 184,-19.5 89,-19.5"/>
<text text-anchor="middle" x="136.5" y="-26.5" font-family="Helvetica,sans-Serif" font-size="10.00">NetworkSystem</text>
</a>
</g>
</g>
<!-- Node18&#45;&gt;Node0 -->
<g id="edge1" class="edge">
<title>Node18&#45;&gt;Node0</title>
<path fill="none" stroke="midnightblue" d="M63.13,-29C71.39,-29 80.29,-29 88.94,-29"/>
<polygon fill="midnightblue" stroke="midnightblue" points="63.09,-25.5 53.09,-29 63.09,-32.5 63.09,-25.5"/>
</g>
<!-- Node1 -->
<g id="node3" class="node">
<title>Node1</title>
<g id="a_node3"><a xlink:href="classClientNetworkSystem.html" target="_top" xlink:title="Manages the client system.">
<polygon fill="white" stroke="black" points="221.5,-38.5 221.5,-57.5 344.5,-57.5 344.5,-38.5 221.5,-38.5"/>
<text text-anchor="middle" x="283" y="-45.5" font-family="Helvetica,sans-Serif" font-size="10.00">ClientNetworkSystem</text>
</a>
</g>
</g>
<!-- Node0&#45;&gt;Node1 -->
<g id="edge2" class="edge">
<title>Node0&#45;&gt;Node1</title>
<path fill="none" stroke="midnightblue" d="M193.97,-36.43C202.94,-37.6 212.26,-38.83 221.32,-40.02"/>
<polygon fill="midnightblue" stroke="midnightblue" points="194.39,-32.95 184.02,-35.12 193.47,-39.89 194.39,-32.95"/>
</g>
<!-- Node2 -->
<g id="node4" class="node">
<title>Node2</title>
<g id="a_node4"><a xlink:href="classServerNetworkSystem.html" target="_top" xlink:title="Manages the server system.">
<polygon fill="white" stroke="black" points="220,-0.5 220,-19.5 346,-19.5 346,-0.5 220,-0.5"/>
<text text-anchor="middle" x="283" y="-7.5" font-family="Helvetica,sans-Serif" font-size="10.00">ServerNetworkSystem</text>
</a>
</g>
</g>
<!-- Node0&#45;&gt;Node2 -->
<g id="edge3" class="edge">
<title>Node0&#45;&gt;Node2</title>
<path fill="none" stroke="midnightblue" d="M194.1,-21.56C202.52,-20.45 211.23,-19.3 219.76,-18.18"/>
<polygon fill="midnightblue" stroke="midnightblue" points="193.47,-18.11 184.02,-22.88 194.39,-25.05 193.47,-18.11"/>
</g>
</g>
</svg>
