<?xml version="1.0" encoding="UTF-8" standalone="no"?>
<!DOCTYPE svg PUBLIC "-//W3C//DTD SVG 1.1//EN"
 "http://www.w3.org/Graphics/SVG/1.1/DTD/svg11.dtd">
<!-- Generated by graphviz version 2.43.0 (0)
 -->
<!-- Title: Graphical Class Hierarchy Pages: 1 -->
<svg width="182pt" height="66pt"
 viewBox="0.00 0.00 182.00 66.00" xmlns="http://www.w3.org/2000/svg" xmlns:xlink="http://www.w3.org/1999/xlink">
<g id="graph0" class="graph" transform="scale(1 1) rotate(0) translate(4 62)">
<title>Graphical Class Hierarchy</title>
<polygon fill="white" stroke="transparent" points="-4,4 -4,-62 178,-62 178,4 -4,4"/>
<!-- Node0 -->
<g id="node1" class="node">
<title>Node0</title>
<g id="a_node1"><a xlink:href="classSystem.html" target="_top" xlink:title="Base class for all systems.">
<polygon fill="white" stroke="black" points="0,-19.5 0,-38.5 53,-38.5 53,-19.5 0,-19.5"/>
<text text-anchor="middle" x="26.5" y="-26.5" font-family="Helvetica,sans-Serif" font-size="10.00">System</text>
</a>
</g>
</g>
<!-- Node1 -->
<g id="node2" class="node">
<title>Node1</title>
<g id="a_node2"><a xlink:href="classClientSystem.html" target="_top" xlink:title="Manages the client system.">
<polygon fill="white" stroke="black" points="90.5,-38.5 90.5,-57.5 172.5,-57.5 172.5,-38.5 90.5,-38.5"/>
<text text-anchor="middle" x="131.5" y="-45.5" font-family="Helvetica,sans-Serif" font-size="10.00">ClientSystem</text>
</a>
</g>
</g>
<!-- Node0&#45;&gt;Node1 -->
<g id="edge1" class="edge">
<title>Node0&#45;&gt;Node1</title>
<path fill="none" stroke="midnightblue" d="M63.13,-35.57C71.89,-37.19 81.33,-38.93 90.29,-40.58"/>
<polygon fill="midnightblue" stroke="midnightblue" points="63.69,-32.12 53.23,-33.75 62.42,-39 63.69,-32.12"/>
</g>
<!-- Node2 -->
<g id="node3" class="node">
<title>Node2</title>
<g id="a_node3"><a xlink:href="classServerSystem.html" target="_top" xlink:title="Manages the server system.">
<polygon fill="white" stroke="black" points="89,-0.5 89,-19.5 174,-19.5 174,-0.5 89,-0.5"/>
<text text-anchor="middle" x="131.5" y="-7.5" font-family="Helvetica,sans-Serif" font-size="10.00">ServerSystem</text>
</a>
</g>
</g>
<!-- Node0&#45;&gt;Node2 -->
<g id="edge2" class="edge">
<title>Node0&#45;&gt;Node2</title>
<path fill="none" stroke="midnightblue" d="M63.24,-22.41C71.45,-20.89 80.25,-19.27 88.69,-17.71"/>
<polygon fill="midnightblue" stroke="midnightblue" points="62.42,-19 53.23,-24.25 63.69,-25.88 62.42,-19"/>
</g>
</g>
</svg>
